<svg width="25" height="23" viewBox="0 0 25 23" fill="none" xmlns="http://www.w3.org/2000/svg">
<path d="M21.4944 2.14381H19.0395V1.02086C19.0395 0.750112 18.9265 0.490452 18.7255 0.299003C18.5244 0.107555 18.2517 0 17.9674 0C17.6831 0 17.4104 0.107555 17.2094 0.299003C17.0083 0.490452 16.8954 0.750112 16.8954 1.02086V2.14381H8.08319V1.02086C8.08319 0.750112 7.97024 0.490452 7.7692 0.299003C7.56815 0.107555 7.29547 0 7.01115 0C6.72683 0 6.45415 0.107555 6.2531 0.299003C6.05205 0.490452 5.93911 0.750112 5.93911 1.02086V2.14381H3.50557C2.57671 2.1465 1.68669 2.49907 1.02988 3.12452C0.373072 3.74998 0.00282762 4.5975 0 5.48202V19.6618C0.00282762 20.5463 0.373072 21.3938 1.02988 22.0193C1.68669 22.6447 2.57671 22.9973 3.50557 23H21.4944C22.4233 22.9973 23.3133 22.6447 23.9701 22.0193C24.6269 21.3938 24.9972 20.5463 25 19.6618V5.48202C24.9972 4.5975 24.6269 3.74998 23.9701 3.12452C23.3133 2.49907 22.4233 2.1465 21.4944 2.14381ZM22.8559 19.6618C22.8559 20.0056 22.7125 20.3354 22.4571 20.5785C22.2018 20.8217 21.8555 20.9583 21.4944 20.9583H3.50557C3.14448 20.9583 2.79818 20.8217 2.54285 20.5785C2.28752 20.3354 2.14408 20.0056 2.14408 19.6618V10.7803H22.8559V19.6618ZM22.8559 8.73857H2.14408V5.48202C2.14408 5.13817 2.28752 4.8084 2.54285 4.56526C2.79818 4.32212 3.14448 4.18553 3.50557 4.18553H5.93911V4.78784C5.93911 5.05859 6.05205 5.31825 6.2531 5.5097C6.45415 5.70114 6.72683 5.8087 7.01115 5.8087C7.29547 5.8087 7.56815 5.70114 7.7692 5.5097C7.97024 5.31825 8.08319 5.05859 8.08319 4.78784V4.18553H16.8954V4.78784C16.8954 5.05859 17.0083 5.31825 17.2094 5.5097C17.4104 5.70114 17.6831 5.8087 17.9674 5.8087C18.2517 5.8087 18.5244 5.70114 18.7255 5.5097C18.9265 5.31825 19.0395 5.05859 19.0395 4.78784V4.18553H21.4944C21.8555 4.18553 22.2018 4.32212 22.4571 4.56526C22.7125 4.8084 22.8559 5.13817 22.8559 5.48202V8.73857Z" fill="#504D4D" fill-opacity="0.9"/>
<path d="M11.3761 18.6896C11.4614 18.7881 11.566 18.8667 11.683 18.9202C11.8001 18.9738 11.9268 19.0009 12.0547 19C12.3044 18.9989 12.544 18.8985 12.7237 18.7196L16.757 14.6643C16.9188 14.4752 17.0055 14.2299 16.9997 13.9775C16.9939 13.7252 16.896 13.4844 16.7257 13.3034C16.5553 13.1224 16.3251 13.0145 16.081 13.0014C15.8369 12.9882 15.597 13.0707 15.4093 13.2325L12.0547 16.5768L10.6683 15.0849C10.4896 14.8937 10.2447 14.7836 9.98737 14.7789C9.73009 14.7742 9.48154 14.8753 9.2964 15.0598C9.11126 15.2444 9.0047 15.4974 9.00015 15.7631C8.99561 16.0288 9.09345 16.2855 9.27216 16.4767L11.3761 18.6896Z" fill="#504D4D" fill-opacity="0.9"/>
</svg>
