<svg width="1152" height="737" viewBox="0 0 1152 737" fill="none" xmlns="http://www.w3.org/2000/svg">
<path d="M0 0H1152V715.244H0V0Z" fill="url(#paint0_linear)"/>
<mask id="mask0" mask-type="alpha" maskUnits="userSpaceOnUse" x="0" y="0" width="1152" height="737">
<path d="M0 0H1152V626.18L0 737V0Z" fill="url(#paint1_linear)"/>
</mask>
<g mask="url(#mask0)">
<ellipse cx="91.7998" cy="221.619" rx="3" ry="4.71529" fill="white" fill-opacity="0.15"/>
<ellipse cx="18" cy="251.797" rx="3" ry="4.71529" fill="white" fill-opacity="0.3"/>
<ellipse cx="32.4004" cy="274.43" rx="3" ry="4.71529" fill="white" fill-opacity="0.08"/>
<ellipse cx="85.7998" cy="389.483" rx="3" ry="4.71529" fill="white" fill-opacity="0.3"/>
<ellipse cx="24" cy="471.529" rx="3" ry="4.71529" fill="white" fill-opacity="0.1"/>
<ellipse cx="55.2002" cy="674.287" rx="3" ry="4.71529" fill="white" fill-opacity="0.3"/>
<ellipse cx="212.4" cy="546.974" rx="3" ry="4.71529" fill="white" fill-opacity="0.3"/>
<ellipse cx="256.8" cy="664.856" rx="3" ry="4.71529" fill="white" fill-opacity="0.08"/>
<ellipse cx="547.8" cy="615.817" rx="3" ry="4.71529" fill="white" fill-opacity="0.08"/>
<ellipse cx="299.4" cy="476.244" rx="3" ry="4.71529" fill="white" fill-opacity="0.1"/>
<ellipse cx="361.8" cy="575.266" rx="3" ry="4.71529" fill="white" fill-opacity="0.3"/>
<ellipse cx="148.2" cy="173.523" rx="3" ry="4.71529" fill="white" fill-opacity="0.3"/>
<ellipse cx="483" cy="209.359" rx="3" ry="4.71529" fill="white" fill-opacity="0.3"/>
<ellipse cx="522.6" cy="364.02" rx="3" ry="4.71529" fill="white" fill-opacity="0.1"/>
<ellipse cx="556.8" cy="125.427" rx="3" ry="4.71529" fill="white" fill-opacity="0.05"/>
<ellipse cx="145.2" cy="279.145" rx="3" ry="4.71529" fill="white" fill-opacity="0.3"/>
<ellipse cx="1048.2" cy="263.073" rx="3" ry="4.71529" fill="white" fill-opacity="0.3"/>
<ellipse cx="1096.8" cy="408.116" rx="3" ry="4.71529" fill="white" fill-opacity="0.8"/>
<ellipse cx="1031.4" cy="505.114" rx="3" ry="4.71529" fill="white" fill-opacity="0.1"/>
<ellipse cx="836.4" cy="680.979" rx="3" ry="4.71529" fill="white" fill-opacity="0.3"/>
<ellipse cx="980.4" cy="679.165" rx="3" ry="4.71529" fill="white" fill-opacity="0.3"/>
<ellipse cx="1108.8" cy="679.165" rx="3" ry="4.71529" fill="white" fill-opacity="0.3"/>
<ellipse cx="1102.8" cy="69.0782" rx="3" ry="4.71529" fill="white" fill-opacity="0.3"/>
<ellipse cx="958.2" cy="440.408" rx="3" ry="4.71529" fill="white" fill-opacity="0.3"/>
<ellipse cx="864.6" cy="134.857" rx="3" ry="4.71529" fill="white" fill-opacity="0.3"/>
<ellipse cx="215.4" cy="226.334" rx="3" ry="4.71529" fill="white" fill-opacity="0.08"/>
<ellipse cx="331.8" cy="130.142" rx="3" ry="4.71529" fill="white" fill-opacity="0.1"/>
<path d="M559.793 352.232L565.5 343.262L571.208 352.232L565.5 361.203L559.793 352.232Z" stroke="#E1E1E1"/>
<path d="M623.393 630.434L629.1 621.464L634.808 630.434L629.1 639.405L623.393 630.434Z" stroke="#E1E1E1"/>
<path d="M887.392 682.539L893.1 673.569L898.807 682.539L893.1 691.51L887.392 682.539Z" stroke="#E1E1E1"/>
<path d="M980.993 488.544L986.7 479.574L992.407 488.544L986.7 497.515L980.993 488.544Z" stroke="#E1E1E1"/>
<path d="M1047.59 702.483L1053.3 693.512L1059.01 702.483L1053.3 711.453L1047.59 702.483Z" stroke="#E1E1E1"/>
<path d="M1082.99 516.646L1088.7 507.676L1094.41 516.646L1088.7 525.617L1082.99 516.646Z" stroke="#E1E1E1" stroke-opacity="0.2"/>
<path d="M1088.99 184.86L1094.7 175.89L1100.41 184.86L1094.7 193.831L1088.99 184.86Z" stroke="#E1E1E1" stroke-opacity="0.5"/>
<line y1="-0.5" x2="19.0017" y2="-0.5" transform="matrix(-0.536794 0.843713 -0.536794 -0.843713 487.2 516.796)" stroke="#C7C7C7"/>
<line y1="-0.5" x2="19.0017" y2="-0.5" transform="matrix(-0.536794 0.843713 -0.536794 -0.843713 985.8 626.405)" stroke="#C7C7C7"/>
<line y1="-0.5" x2="19.0017" y2="-0.5" transform="matrix(-0.536794 0.843713 -0.536794 -0.843713 1120.2 688.954)" stroke="#C7C7C7"/>
<line y1="-0.5" x2="19.0017" y2="-0.5" transform="matrix(-0.536794 0.843713 -0.536794 -0.843713 1098 620.966)" stroke="#C7C7C7"/>
<line y1="-0.5" x2="19.0017" y2="-0.5" transform="matrix(-0.536794 0.843713 -0.536794 -0.843713 1030.8 359.888)" stroke="#C7C7C7" stroke-opacity="0.2"/>
<line y1="-0.5" x2="19.0017" y2="-0.5" transform="matrix(-0.536794 0.843713 -0.536794 -0.843713 1038.6 96.9975)" stroke="#C7C7C7"/>
<line y1="-0.5" x2="19.0017" y2="-0.5" transform="matrix(-0.536794 0.843713 -0.536794 -0.843713 730.8 687.141)" stroke="#C7C7C7"/>
<line y1="-0.5" x2="19.0017" y2="-0.5" transform="matrix(-0.536794 0.843713 -0.536794 -0.843713 645.6 120.711)" stroke="#C7C7C7"/>
</g>
<defs>
<linearGradient id="paint0_linear" x1="-157.8" y1="-58.9957" x2="1361.77" y2="404.398" gradientUnits="userSpaceOnUse">
<stop stop-color="#122E99"/>
<stop offset="0.965551" stop-color="#2370C8"/>
</linearGradient>
<linearGradient id="paint1_linear" x1="-157.8" y1="-60.7903" x2="1369.33" y2="391.16" gradientUnits="userSpaceOnUse">
<stop stop-color="#122E99"/>
<stop offset="0.965551" stop-color="#2370C8"/>
</linearGradient>
</defs>
</svg>
