<svg width="34" height="34" viewBox="0 0 34 34" fill="none" xmlns="http://www.w3.org/2000/svg">
<rect opacity="0.1" width="34" height="34" rx="17" fill="#6D3FE6"/>
<path d="M27.3975 19.6977C27.0935 19.6977 26.8471 19.9441 26.8471 20.2481V25.1353C26.846 26.0467 26.1075 26.7855 25.1959 26.7866H9.75203C8.84042 26.7855 8.10189 26.0467 8.10081 25.1353V10.7923C8.10189 9.88068 8.84042 9.14214 9.75203 9.14107H14.639C14.9431 9.14107 15.1895 8.89467 15.1895 8.59066C15.1895 8.28665 14.9431 8.04025 14.639 8.04025H9.75203C8.23283 8.04197 7.00172 9.27308 7 10.7923V25.1353C7.00172 26.6545 8.23283 27.8856 9.75203 27.8874H25.1959C26.7151 27.8856 27.9462 26.6545 27.9479 25.1353V20.2483C27.9479 19.9443 27.7015 19.6977 27.3975 19.6977Z" fill="#504D4D" fill-opacity="0.9"/>
<path d="M15.6064 16.8014L23.643 8.76459L26.2349 11.3564L18.1983 19.3932L15.6064 16.8014Z" fill="#504D4D" fill-opacity="0.9"/>
<path d="M14.2959 20.7045L17.1602 19.9112L15.0893 17.8403L14.2959 20.7045Z" fill="#504D4D" fill-opacity="0.9"/>
<path d="M26.9516 7.40232C26.4139 6.86589 25.5433 6.86589 25.0056 7.40232L24.4219 7.98606L27.0137 10.5779L27.5975 9.99418C28.1341 9.45646 28.1341 8.58591 27.5975 8.04819L26.9516 7.40232Z" fill="#504D4D" fill-opacity="0.9"/>
</svg>
