<svg width="82" height="60" viewBox="0 0 82 60" fill="none" xmlns="http://www.w3.org/2000/svg">
<g opacity="0.7">
<rect width="82" height="60" rx="7" fill="#F2FBFF"/>
<path d="M4.55566 9.44445C4.55566 6.68303 6.79424 4.44446 9.55566 4.44446H72.4446C75.206 4.44446 77.4446 6.68303 77.4446 9.44446V17.7778H4.55566V9.44445Z" fill="#A9CFF6" fill-opacity="0.7"/>
<path d="M4.55566 50.5555C4.55566 53.317 6.79424 55.5555 9.55566 55.5555H72.4446C75.206 55.5555 77.4446 53.317 77.4446 50.5555V22.2222H4.55566V50.5555Z" fill="#A9CFF6" fill-opacity="0.7"/>
<path d="M18.2222 45.5556C18.2222 47.3965 19.7146 48.8889 21.5555 48.8889H30.8333C32.6742 48.8889 34.1666 47.3965 34.1666 45.5556C34.1666 43.7146 32.6742 42.2222 30.8333 42.2222H21.5555C19.7146 42.2222 18.2222 43.7146 18.2222 45.5556Z" fill="#F2FBFF"/>
</g>
</svg>
