<svg width="72" height="53" viewBox="0 0 72 53" fill="none" xmlns="http://www.w3.org/2000/svg">
<path d="M70.7681 25.3987H64.6768C67.2091 19.6169 66.9354 14.9364 65.9772 11.7701C64.3346 6.12597 58.7909 0 50.5779 0C48.3878 0 46.1977 0.412986 43.9392 1.23896C40.038 2.68441 37.4373 4.26753 36.2738 5.09351C35.1103 4.26753 32.5779 2.68441 28.6084 1.23896C26.3498 0.412986 24.0913 0 21.9696 0C13.7567 0 8.21293 6.12597 6.57034 11.7701C5.61217 15.1429 5.26996 20.2364 8.48669 26.6377H1.09506C0.479088 26.6377 0 27.1195 0 27.739C0 28.3584 0.479088 28.8403 1.09506 28.8403H9.78707C10.1293 29.4597 10.5399 30.0792 11.019 30.6987C18.1369 41.0234 33.6046 52.2429 36.4106 52.9312V53C36.4106 53 36.4791 53 36.5475 52.9312C36.616 52.9312 36.6844 52.9312 36.7529 52.9312V52.8623C39.1483 51.6922 54 42.0558 61.8023 30.6299C62.5551 29.5974 63.1711 28.5649 63.7186 27.5325H70.9049C71.5209 27.5325 72 27.0506 72 26.4312C72 25.8117 71.384 25.3987 70.7681 25.3987ZM59.8175 29.4597C52.5627 40.1286 39.2167 48.7325 36.3422 50.5909C33.3992 48.7325 20.1217 40.0597 12.7985 29.4597C12.6616 29.2533 12.5247 29.0468 12.3878 28.8403H22.4487C22.8593 28.8403 23.27 28.6338 23.4753 28.2208L28.0608 19.1351L35.2472 37.6507C35.384 38.0636 35.8631 38.339 36.2738 38.339C36.2738 38.339 36.2738 38.339 36.3422 38.339C36.8213 38.339 37.2319 37.9948 37.3688 37.513L43.6654 15.8312L47.019 26.7753C47.1559 27.1883 47.4981 27.4636 47.9087 27.5325C48.3194 27.6013 48.73 27.3948 49.0038 27.0507L51.673 23.1273L53.9316 26.9818C54.1369 27.326 54.4791 27.5325 54.8897 27.5325H61.0494C60.6388 28.2208 60.2281 28.8403 59.8175 29.4597ZM62.2814 25.3987H55.5741L52.7681 20.5805C52.5627 20.2364 52.2205 20.0299 51.8099 20.0299C51.3992 20.0299 51.057 20.1675 50.8517 20.5117L48.5247 23.9532L44.7605 11.6325C44.6236 11.1506 44.1445 10.8753 43.6654 10.8065C43.1863 10.8065 42.7072 11.1506 42.5703 11.6325L36.2053 33.7273L29.2928 15.9688C29.1559 15.5558 28.7453 15.2805 28.3346 15.2805C27.8555 15.2805 27.5133 15.487 27.308 15.9L21.9011 26.5688H11.019C8.28137 21.5442 7.52852 16.726 8.76046 12.3896C10.1977 7.5026 14.9202 2.27143 22.038 2.27143C23.9544 2.27143 25.9392 2.68442 27.924 3.37273C32.9202 5.23117 35.5894 7.36493 35.6578 7.36493C36.0684 7.70909 36.616 7.70909 37.0266 7.36493C37.0266 7.36493 39.6958 5.23117 44.7605 3.37273C46.7453 2.61558 48.73 2.27143 50.6464 2.27143C57.6958 2.27143 62.4867 7.5026 63.924 12.3896C65.0875 16.3818 64.4715 20.787 62.2814 25.3987Z" fill-opacity="0.7"/>
</svg>
