<svg width="49" height="65" viewBox="0 0 49 65" fill="none" xmlns="http://www.w3.org/2000/svg">
<path d="M8.09863 39.1399C6.23721 40.3282 4.61605 41.8504 3.31846 43.6282C3.31846 43.6282 3.31846 43.6282 3.22628 43.7196C3.1341 43.8109 3.22628 43.7196 3.22628 43.8109C1.1264 46.7575 -0.000685232 50.2764 3.1255e-07 53.8835V63.6953C3.1255e-07 64.0413 0.13874 64.3732 0.385697 64.6179C0.632654 64.8625 0.9676 65 1.31685 65H47.6831C48.0324 65 48.3673 64.8625 48.6143 64.6179C48.8613 64.3732 49 64.0413 49 63.6953V53.8835C49.0007 50.2764 47.8736 46.7575 45.7737 43.8109C45.7737 43.8109 45.7737 43.7456 45.7737 43.7196C45.7737 43.6935 45.7737 43.7196 45.6815 43.6413C44.388 41.8563 42.7663 40.3291 40.9014 39.1399C40.8493 39.0976 40.7917 39.0625 40.7302 39.0355C38.2151 37.4775 35.343 36.5753 32.3813 36.413C34.9122 34.5716 36.6999 31.8985 37.4249 28.8715H37.9516C38.5345 28.9035 39.1178 28.8174 39.666 28.6185C40.2141 28.4195 40.7156 28.1119 41.1396 27.7144C41.5637 27.3169 41.9015 26.8378 42.1323 26.3066C42.3632 25.7753 42.4822 25.203 42.4822 24.6246C42.4822 24.0462 42.3632 23.4738 42.1323 22.9426C41.9015 22.4113 41.5637 21.9323 41.1396 21.5348C40.7156 21.1372 40.2141 20.8296 39.666 20.6306C39.1178 20.4317 38.5345 20.3456 37.9516 20.3776H37.7936V19.0729C39.181 17.5576 40.0359 15.638 40.2305 13.6013C40.4252 11.5645 39.9491 9.52007 38.8734 7.77373C38.3728 6.84444 37.6271 6.0672 36.7156 5.52492C35.8042 4.98263 34.7613 4.69563 33.6982 4.69452C31.4069 2.55474 22.4523 -4.60833 11.3117 4.52491C9.33647 6.1428 3.64768 10.592 3.595 10.6442C3.43083 10.7724 3.29982 10.9375 3.21281 11.1258C3.12579 11.3141 3.08527 11.5202 3.0946 11.7271C3.10414 11.9331 3.16282 12.1339 3.26583 12.3131C3.36883 12.4922 3.51323 12.6447 3.68718 12.7579C5.29374 13.8017 8.17764 13.9191 10.3504 13.8539C9.52147 14.9185 8.4527 15.7764 7.22951 16.359C7.02469 16.4403 6.84379 16.5714 6.70343 16.7401C6.56307 16.9088 6.46776 17.1098 6.42623 17.3245C6.38418 17.5413 6.39836 17.7652 6.46746 17.9752C6.53655 18.1851 6.6583 18.3743 6.82128 18.5249C8.08348 19.4852 9.61608 20.0324 11.2064 20.0906V20.3515H11.0484C10.4655 20.3195 9.88215 20.4056 9.33401 20.6045C8.78586 20.8035 8.28443 21.1112 7.86037 21.5087C7.43631 21.9062 7.09853 22.3852 6.86768 22.9165C6.63683 23.4477 6.51777 24.0201 6.51777 24.5985C6.51777 25.1769 6.63683 25.7492 6.86768 26.2805C7.09853 26.8117 7.43631 27.2908 7.86037 27.6883C8.28443 28.0858 8.78586 28.3934 9.33401 28.5924C9.88215 28.7913 10.4655 28.8774 11.0484 28.8454H11.5751C12.1416 31.2201 13.3688 33.3899 15.1174 35.1082C15.596 35.5821 16.1112 36.0184 16.6582 36.413C13.6845 36.5671 10.7987 37.4648 8.26982 39.0225C8.20753 39.0535 8.14991 39.0931 8.09863 39.1399ZM46.3663 62.3905H39.0841V58.9068C39.0841 58.5608 38.9454 58.2289 38.6984 57.9842C38.4515 57.7395 38.1165 57.6021 37.7673 57.6021C37.418 57.6021 37.0831 57.7395 36.8361 57.9842C36.5892 58.2289 36.4504 58.5608 36.4504 58.9068V62.3905H12.5101V58.9068C12.5101 58.5608 12.3713 58.2289 12.1244 57.9842C11.8774 57.7395 11.5425 57.6021 11.1932 57.6021C10.844 57.6021 10.509 57.7395 10.2621 57.9842C10.0151 58.2289 9.87638 58.5608 9.87638 58.9068V62.3905H2.5942V53.8835C2.60999 51.2257 3.34681 48.6209 4.72749 46.3421L23.7165 59.7158H23.835L23.9535 59.781C24.1202 59.8522 24.2988 59.892 24.4802 59.8984C24.6617 59.892 24.8403 59.8522 25.007 59.781L25.1255 59.7158H25.244L44.233 46.3421C45.5952 48.6261 46.3138 51.2305 46.3136 53.8835L46.3663 62.3905ZM42.7581 44.2415L24.4802 57.041L6.20237 44.2415C6.98569 43.3488 7.86931 42.5477 8.83607 41.8538L23.6901 52.8398L23.835 52.918L23.9667 52.9833C24.1292 53.0532 24.3032 53.093 24.4802 53.1007C24.6572 53.093 24.8313 53.0532 24.9938 52.9833L25.1255 52.918L25.2704 52.8398L40.1376 41.8146C41.1019 42.5216 41.9812 43.3359 42.7581 44.2415ZM24.4012 39.0225H25.7181L25.6259 40.2228H23.2819L23.1502 39.0225H24.4012ZM24.4802 50.2433L21.1881 47.7904L23.0185 42.8323H26.0078L28.1147 47.5425L24.4802 50.2433ZM30.2744 45.9376L28.1938 41.2927L28.3518 39.0225H31.2884C33.4793 38.9914 35.6504 39.4368 37.6488 40.3272L30.2744 45.9376ZM20.7536 41.371L18.989 46.1594L11.3117 40.3272C13.3089 39.3926 15.4898 38.907 17.6985 38.905H20.5297L20.7536 41.371ZM37.8726 23.1045C38.102 23.0842 38.3332 23.1115 38.5514 23.1845C38.7697 23.2576 38.9701 23.3749 39.1401 23.5289C39.3101 23.6829 39.4458 23.8703 39.5387 24.0792C39.6316 24.288 39.6795 24.5138 39.6795 24.742C39.6795 24.9702 39.6316 25.1959 39.5387 25.4048C39.4458 25.6136 39.3101 25.8011 39.1401 25.9551C38.9701 26.1091 38.7697 26.2264 38.5514 26.2995C38.3332 26.3725 38.102 26.3998 37.8726 26.3794H37.7146V22.961L37.8726 23.1045ZM14.064 11.6227C13.9261 11.4266 13.7365 11.2718 13.5159 11.1752C13.2953 11.0786 13.0521 11.0438 12.813 11.0747C10.957 11.3145 9.08003 11.3495 7.21634 11.1791C9.0731 9.71781 11.7463 7.60411 13.0105 6.56032C23.8218 -2.32502 31.8809 6.56031 32.2102 6.97783C32.3924 7.17189 32.6267 7.31053 32.8855 7.37753C33.1443 7.44454 33.4171 7.43714 33.6719 7.35621C34.5673 7.08221 35.9237 8.06078 36.5031 9.07848C37.1774 10.1368 37.5461 11.3579 37.5694 12.6092C37.5926 13.8605 37.2693 15.0942 36.6348 16.1763C35.7809 15.0591 34.795 14.0472 33.6982 13.1623C33.5403 13.0349 33.3547 12.9455 33.156 12.9012C32.9573 12.8568 32.7509 12.8588 32.5531 12.9068C32.3553 12.9549 32.1714 13.0477 32.0159 13.1781C31.8604 13.3085 31.7376 13.4728 31.6571 13.6581C31.1288 14.6374 30.4005 15.497 29.5186 16.1822C28.6367 16.8673 27.6204 17.363 26.5345 17.6376C26.4194 16.3379 25.8889 15.1084 25.0202 14.1279C24.8149 13.9154 24.5432 13.778 24.2492 13.7377C23.9552 13.6974 23.6561 13.7568 23.4004 13.906C16.724 17.7029 12.6154 17.8203 10.4821 17.3636C11.991 16.1438 13.2361 14.635 14.143 12.9275C14.2468 12.7223 14.2941 12.4937 14.2803 12.2646C14.2664 12.0355 14.1918 11.8141 14.064 11.6227ZM11.2327 26.2359H11.0747C10.8453 26.2562 10.6141 26.229 10.3959 26.1559C10.1777 26.0829 9.97718 25.9656 9.80721 25.8116C9.63724 25.6575 9.5015 25.4701 9.40864 25.2613C9.31577 25.0524 9.26781 24.8267 9.26781 24.5985C9.26781 24.3702 9.31577 24.1445 9.40864 23.9357C9.5015 23.7268 9.63724 23.5394 9.80721 23.3854C9.97718 23.2313 10.1777 23.1141 10.3959 23.041C10.6141 22.9679 10.8453 22.9407 11.0747 22.961H11.2327V26.2359ZM13.8664 25.8706V21.6563V20.0645C17.3241 19.6149 20.6581 18.4931 23.677 16.7635C23.9915 17.4413 24.0246 18.2145 23.7691 18.9163C23.6946 19.114 23.6696 19.3267 23.6962 19.536C23.7228 19.7454 23.8003 19.9453 23.922 20.1185C24.0437 20.2917 24.206 20.4331 24.395 20.5305C24.584 20.6279 24.794 20.6784 25.007 20.6777H25.1913C25.4284 20.6777 30.5509 19.8818 33.2373 16.2546C34.0202 16.9674 34.6515 17.8279 35.0941 18.7858V21.6563V25.8706C35.07 28.6315 33.9523 31.2727 31.9819 33.225C30.0114 35.1774 27.3458 36.2847 24.5593 36.3086H24.4012C21.6157 36.2814 18.9521 35.1729 16.9823 33.2213C15.0126 31.2697 13.8939 28.6305 13.8664 25.8706Z" fill="#ED5669" fill-opacity="0.7"/>
</svg>
