<svg width="76" height="63" viewBox="0 0 76 63" fill="none" xmlns="http://www.w3.org/2000/svg">
<path d="M72.7711 31.8214C72.5356 31.1937 72.3337 30.5516 72.1663 29.8983C71.5372 27.2258 71.2179 24.4772 71.216 21.7174V14.5138C71.216 6.63243 64.6646 0.327322 56.6013 0.327322C52.8463 0.291114 49.2056 1.74091 46.3495 4.40988C45.0061 5.6565 43.9246 7.20616 43.1791 8.95277C42.4335 10.6994 42.0415 12.6017 42.0298 14.5296V21.6544C42.022 22.7088 41.9547 23.7616 41.8283 24.8069C40.178 23.6894 38.2484 23.1687 36.3127 23.3186C34.3771 23.4686 32.5337 24.2815 31.0436 25.6423C30.5973 25.6423 30.1653 25.5478 29.7333 25.5478H29.071C28.7595 25.5478 28.4563 25.6584 28.2071 25.863C26.5762 27.4102 24.4905 28.2619 22.3324 28.2619C20.1743 28.2619 18.0886 27.4102 16.4577 25.863C16.2085 25.6584 15.9054 25.5478 15.5938 25.5478H14.9459C12.9833 25.5436 11.0393 25.9635 9.22518 26.7833C7.41109 27.6031 5.76261 28.8067 4.37419 30.3252C2.98577 31.8437 1.88471 33.6472 1.13411 35.6323C0.383505 37.6175 -0.00189106 39.7453 6.97669e-06 41.8938V48.0097C6.97669e-06 48.4278 0.151708 48.8287 0.421736 49.1243C0.691764 49.4199 1.058 49.586 1.43988 49.586H21.6845C20.4248 52.1936 19.772 55.1009 19.7838 58.0506V61.4238C19.7838 61.8419 19.9355 62.2428 20.2056 62.5384C20.4756 62.8341 20.8418 63.0001 21.2237 63.0001H52.6849C53.0668 63.0001 53.433 62.8341 53.703 62.5384C53.9731 62.2428 54.1248 61.8419 54.1248 61.4238V58.0506C54.1316 55.6875 53.7107 53.3463 52.8865 51.1623H70.1649C71.0102 51.1629 71.8455 50.9622 72.6129 50.5744C73.3803 50.1865 74.0616 49.6206 74.6094 48.9159C75.1573 48.2112 75.5586 47.3846 75.7857 46.4932C76.0127 45.6019 76.0601 44.6671 75.9244 43.7538C75.2966 39.6566 74.2384 35.6526 72.7711 31.8214ZM43.1097 31.5534C39.1035 30.161 34.8053 30.1335 30.7844 31.4746C31.1702 30.0138 31.979 28.7297 33.0892 27.8159C34.1995 26.902 35.5509 26.4079 36.9399 26.4079C38.3289 26.4079 39.6803 26.902 40.7906 27.8159C41.9008 28.7297 42.7096 30.0138 43.0953 31.4746L43.1097 31.5534ZM43.2681 34.9424C43.0307 36.2139 42.477 37.389 41.6682 38.3379C40.8594 39.2868 39.8269 39.9728 38.6845 40.3201C37.5422 40.6673 36.3345 40.6625 35.1945 40.306C34.0546 39.9495 33.0267 39.2553 32.2243 38.2999C31.4221 37.3632 30.8737 36.2007 30.6405 34.9424C34.7087 33.2556 39.1999 33.2556 43.2681 34.9424ZM51.245 59.8476H22.6636V58.0506C22.6636 51.6194 26.1913 46.2916 30.6549 45.7556C31.4055 46.7985 32.3623 47.6413 33.4534 48.2209C34.5446 48.8004 35.7415 49.1015 36.9543 49.1015C38.1671 49.1015 39.364 48.8004 40.4552 48.2209C41.5463 47.6413 42.5031 46.7985 43.2537 45.7556C47.7173 46.2916 51.245 51.6194 51.245 58.0506V59.8476ZM72.3823 46.8906C72.1002 47.248 71.7508 47.5344 71.3582 47.7303C70.9655 47.9262 70.5388 48.0269 70.1073 48.0255H51.389C50.4393 46.3993 49.1447 45.0485 47.6154 44.0879C46.0861 43.1273 44.3675 42.5855 42.6058 42.5085C42.3762 42.5054 42.1492 42.5624 41.9438 42.6748C41.7384 42.7872 41.5606 42.9518 41.4251 43.1548C40.9568 43.9928 40.2997 44.6852 39.5169 45.1655C38.7341 45.6459 37.8517 45.8981 36.9543 45.8981C36.0569 45.8981 35.1745 45.6459 34.3917 45.1655C33.6089 44.6852 32.9518 43.9928 32.4835 43.1548C32.348 42.9518 32.1702 42.7872 31.9648 42.6748C31.7594 42.5624 31.5324 42.5054 31.3028 42.5085C29.8675 42.5545 28.4561 42.9223 27.1559 43.5893C25.8556 44.2562 24.6942 45.2082 23.7435 46.3862H14.7731V41.5785C14.7731 41.1605 14.6214 40.7595 14.3514 40.4639C14.0813 40.1683 13.7151 40.0022 13.3332 40.0022C12.9513 40.0022 12.5851 40.1683 12.3151 40.4639C12.045 40.7595 11.8933 41.1605 11.8933 41.5785V46.4334H2.87975V41.8938C2.88164 40.1619 3.19534 38.4475 3.80292 36.8484C4.4105 35.2494 5.30004 33.7972 6.42067 32.5748C7.5413 31.3524 8.87105 30.3838 10.3339 29.7244C11.7967 29.065 13.3639 28.7277 14.9459 28.7318H15.1474C17.025 30.3346 19.3078 31.2656 21.6857 31.3982C24.0635 31.5307 26.4209 30.8584 28.4375 29.4727C27.865 30.8672 27.5858 32.3846 27.6204 33.9129C27.6551 35.4413 28.0026 36.9417 28.6376 38.3034C29.2725 39.6651 30.1785 40.8534 31.2888 41.7807C32.3992 42.7079 33.6855 43.3505 35.0529 43.661C36.4203 43.9715 37.834 43.9421 39.1896 43.5747C40.5452 43.2074 41.8083 42.5117 42.8855 41.5387C43.9628 40.5658 44.8268 39.3406 45.4139 37.9534C46.0009 36.5662 46.296 35.0524 46.2775 33.5237C46.2756 31.2947 45.6025 29.1285 44.3624 27.3605C44.695 25.4746 44.8685 23.5593 44.8808 21.6386V14.5138C44.8975 13.0337 45.2074 11.5752 45.7891 10.239C46.3708 8.9028 47.2104 7.7207 48.2501 6.7743C50.5778 4.60398 53.5439 3.4283 56.6013 3.46411C63.0808 3.46411 68.3363 8.41363 68.3363 14.4981V21.6228C68.3363 24.6493 68.6895 27.6634 69.3874 30.5919C69.5738 31.4273 69.8095 32.2487 70.0929 33.0508C71.4619 36.6696 72.4568 40.4446 73.0591 44.3055C73.1148 44.7617 73.0834 45.2256 72.9669 45.6679C72.8505 46.1101 72.6514 46.5211 72.3823 46.8748V46.8906Z" fill="#FF6112" fill-opacity="0.5"/>
<path d="M56.8313 8.66577H56.385C54.2018 8.66994 52.1092 9.62121 50.5654 11.3112C49.0217 13.0012 48.1527 15.2921 48.1489 17.6821V22.1272C48.239 24.5171 49.1696 26.7764 50.7462 28.4326C52.3228 30.0888 54.4232 31.0136 56.6082 31.0136C58.7932 31.0136 60.8936 30.0888 62.4701 28.4326C64.0467 26.7764 64.9773 24.5171 65.0674 22.1272V17.6821C65.0636 15.2921 64.1947 13.0012 62.6509 11.3112C61.1072 9.62121 59.0145 8.66994 56.8313 8.66577ZM56.385 11.8183H56.8313C57.8819 11.8222 58.9083 12.1632 59.7836 12.7992C60.6588 13.4351 61.3445 14.3382 61.7557 15.3965C60.1275 14.6399 58.3769 14.2501 56.6082 14.2501C54.8394 14.2501 53.0888 14.6399 51.4606 15.3965C51.8703 14.337 52.5556 13.4328 53.4312 12.7966C54.3068 12.1603 55.334 11.8201 56.385 11.8183ZM56.601 28.2274C55.1231 28.2274 53.7058 27.5847 52.6608 26.4407C51.6157 25.2967 51.0287 23.7451 51.0287 22.1272V19.1007C52.7145 17.9951 54.6429 17.4111 56.6082 17.4111C58.5734 17.4111 60.5018 17.9951 62.1877 19.1007V22.1272C62.1839 23.7465 61.5936 25.2981 60.5463 26.4416C59.499 27.5852 58.0802 28.2274 56.601 28.2274Z" fill="#FF6112" fill-opacity="0.5"/>
<path d="M51.5763 35.0842C49.8709 34.4453 48.2711 33.5085 46.8392 32.3099C46.7719 32.9407 46.8214 33.5798 46.9847 34.1891C47.148 34.7984 47.4217 35.3655 47.7895 35.8566C48.5298 36.8867 49.5317 37.6544 50.6692 38.0634C51.7571 38.4981 52.9395 38.5637 54.062 38.2515C55.1845 37.9394 56.1949 37.2641 56.9615 36.3137C55.8096 36.1088 54.8881 35.9984 54.0817 35.7777C53.2331 35.6095 52.396 35.3778 51.5763 35.0842Z" fill="#FF6112" fill-opacity="0.5"/>
<path d="M15.1908 23.1203C16.9367 24.5713 19.0183 25.4594 21.2006 25.6844C23.383 25.9095 25.5794 25.4625 27.5422 24.3939C29.5049 23.3253 31.1558 21.6776 32.3088 19.6367C33.4618 17.5957 34.0709 15.2427 34.0675 12.843C34.0675 12.512 34.0675 12.1967 34.0675 11.8657C33.8359 8.65047 32.5106 5.64741 30.3538 3.45033C28.197 1.25324 25.3657 0.0220859 22.4196 0.000294283C19.4736 -0.0214973 16.6273 1.16766 14.4436 3.33264C12.2599 5.49762 10.8977 8.48081 10.6264 11.6923V11.7711C10.6264 12.1179 10.6264 12.4805 10.6264 12.843C10.6112 14.8255 11.0154 16.7849 11.8072 18.5679C12.5991 20.3508 13.7572 21.909 15.1908 23.1203ZM27.6889 20.5983C26.1305 21.8542 24.2461 22.5317 22.3109 22.5317C20.3758 22.5317 18.4914 21.8542 16.933 20.5983C15.9397 19.7554 15.1207 18.6917 14.5301 17.4772C13.9394 16.2628 13.5904 14.9251 13.5061 13.5523C14.7541 13.6314 16.003 13.413 17.1664 12.9123C18.3298 12.4116 19.3801 11.6404 20.2447 10.652C23.4124 13.0006 28.6248 13.4105 31.2165 13.4735C31.1339 14.8697 30.7757 16.2296 30.1667 17.4596C29.5577 18.6896 28.7123 19.7604 27.6889 20.5983ZM22.3037 3.10161C24.2545 3.10377 26.1504 3.8088 27.6988 5.10787C29.2472 6.40694 30.3619 8.22782 30.871 10.2894C27.7896 10.1791 22.7789 9.53283 20.9935 7.26299C20.8316 7.06477 20.6266 6.91458 20.3975 6.82639C20.1685 6.7382 19.9227 6.71487 19.6832 6.75858C19.4415 6.79787 19.2129 6.90385 19.0189 7.06655C18.825 7.22925 18.672 7.44331 18.5745 7.68858C18.5745 7.79892 17.4946 10.2579 13.7077 10.384C14.2019 8.29961 15.314 6.4537 16.8697 5.13575C18.4254 3.8178 20.3366 3.10236 22.3037 3.10161Z" fill="#FF6112" fill-opacity="0.5"/>
</svg>
