<svg width="41" height="64" viewBox="0 0 41 64" fill="none" xmlns="http://www.w3.org/2000/svg">
<path d="M41 25.2292V18.0598C41 13.27 38.8402 8.67647 34.9957 5.28959C31.1512 1.90272 25.9369 0 20.5 0C15.0631 0 9.84881 1.90272 6.00431 5.28959C2.15981 8.67647 0 13.27 0 18.0598V45.6198C0 50.4095 2.15981 55.0031 6.00431 58.39C9.84881 61.7768 15.0631 63.6796 20.5 63.6796C25.9369 63.6796 31.1512 61.7768 34.9957 58.39C38.8402 55.0031 41 50.4095 41 45.6198V25.1747V25.2292ZM20.5 2.72601C25.1138 2.73322 29.5362 4.35105 32.7986 7.22513C36.0611 10.0992 37.8975 13.9952 37.9057 18.0598V24.3978C36.1333 25.1843 34.4362 26.0959 32.8309 27.1238C32.5834 27.2737 32.3513 27.4373 32.1192 27.6008C31.6517 27.0387 31.1343 26.51 30.5721 26.0198C30.1831 25.6881 29.7752 25.3742 29.3498 25.0793C30.8261 23.576 31.7811 21.7307 32.1009 19.763C32.4208 17.7953 32.0921 15.7881 31.154 13.9802C30.2159 12.1724 28.7079 10.6401 26.8095 9.56573C24.9111 8.49137 22.7022 7.92019 20.4458 7.92019C18.1895 7.92019 15.9806 8.49137 14.0822 9.56573C12.1838 10.6401 10.6758 12.1724 9.73772 13.9802C8.79962 15.7881 8.47093 17.7953 8.79078 19.763C9.11064 21.7307 10.0656 23.576 11.5419 25.0793C9.65701 26.3901 8.18211 28.1022 7.25623 30.0542C5.60916 28.5093 4.19001 26.7874 3.03245 24.9293V18.1143C3.02837 16.0925 3.47741 14.0898 4.35379 12.2212C5.23017 10.3526 6.51666 8.65479 8.13949 7.22513C9.76231 5.79548 11.6895 4.66212 13.8106 3.89006C15.9317 3.118 18.205 2.72242 20.5 2.72601ZM15.286 47.8415C10.1971 45.5741 5.96256 42.0566 3.09434 37.7143V29.9316C7.25173 34.683 12.9576 38.2021 19.4479 40.0178C17.7823 42.5036 16.3887 45.1233 15.286 47.8415ZM21.1962 37.6325C16.9732 36.5748 13.065 34.7137 9.74717 32.1805C10.4492 30.0827 11.9245 28.2507 13.94 26.9739H14.0328C15.9514 28.0974 18.2039 28.6967 20.5077 28.6967C22.8115 28.6967 25.064 28.0974 26.9826 26.9739C26.9826 26.9739 26.9826 26.9739 27.06 26.9739C27.5535 27.2819 28.0143 27.6286 28.437 28.0097C28.9059 28.4256 29.3258 28.8823 29.6902 29.3727C26.4582 31.7843 23.6021 34.5616 21.1962 37.6325ZM20.0049 10.6723C20.4581 10.9651 20.7679 11.3988 20.8713 11.8854C20.8713 12.2398 20.4226 12.7032 19.6491 13.153C19.4777 13.2509 19.3301 13.3778 19.2147 13.5263C19.0994 13.6747 19.0185 13.8418 18.9768 14.0179C18.9351 14.1941 18.9333 14.3757 18.9717 14.5525C19.0101 14.7292 19.0878 14.8974 19.2004 15.0476C19.342 15.237 19.535 15.3923 19.7619 15.4994C19.9889 15.6065 20.2426 15.662 20.5 15.6609C20.8017 15.6629 21.0975 15.5871 21.3509 15.4428C22.0969 15.0977 22.7294 14.589 23.1874 13.9659C23.6454 13.3428 23.9134 12.6263 23.9657 11.8854C23.9638 11.6747 23.9378 11.4646 23.8883 11.2584C25.2628 11.772 26.4638 12.5893 27.375 13.6312C28.2862 14.6732 28.8769 15.9046 29.09 17.2065C29.3031 18.5083 29.1314 19.8366 28.5915 21.0629C28.0516 22.2893 27.1617 23.3722 26.0079 24.207C24.8366 25.0254 23.4499 25.5706 21.9762 25.7922C20.5024 26.0137 18.989 25.9045 17.5758 25.4745C16.6371 25.1884 15.7626 24.7593 14.9921 24.207C13.6457 23.2296 12.6648 21.9174 12.1775 20.4417C11.6901 18.9659 11.7189 17.395 12.2601 15.9339C12.8012 14.4727 13.8297 13.1892 15.2112 12.2506C16.5927 11.3121 18.2633 10.762 20.0049 10.6723ZM3.09434 45.6198V42.5666C6.12784 45.893 9.95812 48.5878 14.3113 50.4584C13.6063 52.615 13.0891 54.8158 12.7642 57.0417L12.4238 59.1817C9.61449 57.8836 7.26084 55.9345 5.61672 53.5445C3.97261 51.1545 3.10045 48.4144 3.09434 45.6198ZM20.5 60.9536C18.7539 60.9509 17.0179 60.7213 15.3479 60.2721L15.7966 57.4097C16.6141 51.8486 18.7044 46.4914 21.9409 41.6628C25.1774 36.8342 29.4928 32.6345 34.6257 29.3182C35.7551 28.6231 36.8381 27.9552 37.9057 27.4782V45.6198C37.8975 49.6843 36.0611 53.5803 32.7986 56.4544C29.5362 59.3285 25.1138 60.9464 20.5 60.9536Z"  fill-opacity="0.7"/>
<path d="M17.9015 21.4541C18.5936 22.0567 19.5276 22.3947 20.5007 22.3947C21.4739 22.3947 22.4078 22.0567 23.1 21.4541C23.1784 21.3975 23.2431 21.3277 23.2904 21.2487C23.3376 21.1698 23.3665 21.0832 23.3751 20.9943C23.3838 20.9053 23.3721 20.8158 23.3408 20.7309C23.3095 20.646 23.2591 20.5674 23.1928 20.5C23.1286 20.4309 23.0493 20.3738 22.9597 20.3322C22.8701 20.2906 22.7718 20.2652 22.6709 20.2576C22.5699 20.2499 22.4682 20.2602 22.3719 20.2878C22.2755 20.3154 22.1864 20.3597 22.1098 20.4182C21.9054 20.6149 21.6568 20.7719 21.3798 20.8794C21.1027 20.9868 20.8034 21.0423 20.5007 21.0423C20.198 21.0423 19.8987 20.9868 19.6216 20.8794C19.3446 20.7719 19.096 20.6149 18.8916 20.4182C18.8151 20.3597 18.7259 20.3154 18.6296 20.2878C18.5332 20.2602 18.4315 20.2499 18.3305 20.2576C18.2296 20.2652 18.1314 20.2906 18.0417 20.3322C17.9521 20.3738 17.8728 20.4309 17.8086 20.5C17.7423 20.5674 17.692 20.646 17.6606 20.7309C17.6293 20.8158 17.6177 20.9053 17.6263 20.9943C17.635 21.0832 17.6638 21.1698 17.711 21.2487C17.7583 21.3277 17.823 21.3975 17.9015 21.4541Z"  fill-opacity="0.7"/>
</svg>
