<svg width="62" height="62" viewBox="0 0 62 62" fill="none" xmlns="http://www.w3.org/2000/svg">
<g clip-path="url(#clip0)">
<path d="M31.0019 11.7583C33.6916 11.7583 35.872 9.5779 35.872 6.88825C35.872 4.19859 33.6916 2.01819 31.0019 2.01819C28.3122 2.01819 26.1318 4.19859 26.1318 6.88825C26.1318 9.5779 28.3122 11.7583 31.0019 11.7583Z"  fill-opacity="0.7"/>
<path d="M36.2457 17.3783C35.6987 14.6362 33.1074 12.7537 30.2967 13.1294C27.9713 13.4379 26.1971 15.1997 25.7598 17.3783C27.2268 16.2924 29.0421 15.648 31.0028 15.648C32.9634 15.648 34.776 16.2938 36.2457 17.3783Z"  fill-opacity="0.7"/>
<path d="M48.387 40.311C47.271 39.3279 45.5667 39.4376 44.5864 40.5551L40.7474 44.9151C39.7643 46.0311 39.874 47.7354 40.9915 48.7171C41.5029 49.1668 42.1377 49.3889 42.7697 49.3889C43.517 49.3889 44.2601 49.0777 44.7934 48.473L48.6297 44.1116C49.6141 42.9969 49.5045 41.2941 48.387 40.311Z"  fill-opacity="0.7"/>
<path d="M44.7916 14.9597C43.8072 13.8436 42.1057 13.734 40.991 14.717C39.8749 15.7001 39.7639 17.403 40.7469 18.519L44.586 22.8804C45.1193 23.485 45.8624 23.7949 46.611 23.7949C47.2431 23.7949 47.8765 23.5742 48.3893 23.1244C49.5054 22.1414 49.6164 20.4385 48.632 19.3225L44.7916 14.9597Z"  fill-opacity="0.7"/>
<path d="M31.0261 32.2435C31.0179 32.2435 30.9836 32.2435 30.9754 32.2435C29.2602 32.2435 27.6245 33.0209 26.481 34.3029C25.3376 35.5835 24.7932 37.311 24.9866 39.0166L27.7548 56.9064C27.944 58.5915 29.3233 59.9831 31.0015 59.9831C32.6824 59.9831 34.0576 58.6024 34.2509 56.9147L37.0164 39.0139C37.2111 37.3097 36.6654 35.5807 35.5219 34.3001C34.3757 33.0223 32.7427 32.2435 31.0261 32.2435Z"  fill-opacity="0.7"/>
<path d="M31.0002 30.723C34.279 30.723 36.937 28.065 36.937 24.7862C36.937 21.5075 34.279 18.8495 31.0002 18.8495C27.7215 18.8495 25.0635 21.5075 25.0635 24.7862C25.0635 28.065 27.7215 30.723 31.0002 30.723Z"  fill-opacity="0.7"/>
<path d="M56.5142 24.0061C56.5073 24.0061 56.4772 24.0061 56.4689 24.0061C54.9059 24.0061 53.4169 24.7149 52.3777 25.8804C51.3356 27.0458 50.8407 28.6198 51.0162 30.1732L53.5348 46.4588C53.7076 47.9944 54.9635 49.2599 56.4909 49.2599C58.0196 49.2599 59.2742 48.0026 59.4483 46.4684L61.9656 30.1705C62.1411 28.6184 61.6461 27.0458 60.6055 25.8804C59.5648 24.7149 58.0758 24.0061 56.5142 24.0061Z"  fill-opacity="0.7"/>
<path d="M56.4907 22.6213C59.4757 22.6213 61.8955 20.2015 61.8955 17.2165C61.8955 14.2316 59.4757 11.8118 56.4907 11.8118C53.5057 11.8118 51.0859 14.2316 51.0859 17.2165C51.0859 20.2015 53.5057 22.6213 56.4907 22.6213Z"  fill-opacity="0.7"/>
<path d="M13.614 40.3109C14.7314 39.3278 16.4343 39.4375 17.416 40.5549L21.2536 44.915C22.2367 46.031 22.127 47.7353 21.0109 48.7169C20.4995 49.1667 19.8647 49.3888 19.2326 49.3888C18.4854 49.3888 17.7423 49.0775 17.2089 48.4729L13.3727 44.1115C12.3882 42.9968 12.4952 41.2939 13.614 40.3109Z"  fill-opacity="0.7"/>
<path d="M17.2067 14.9598C18.1911 13.8438 19.8926 13.7341 21.0087 14.7171C22.1247 15.7002 22.2344 17.4031 21.2513 18.5191L17.4137 22.8805C16.8803 23.4852 16.1372 23.795 15.3886 23.795C14.7566 23.795 14.1231 23.5743 13.6103 23.1246C12.4943 22.1415 12.3846 20.4386 13.3677 19.3226L17.2067 14.9598Z"  fill-opacity="0.7"/>
<path d="M5.48516 24.0061C5.49201 24.0061 5.52355 24.0061 5.53177 24.0061C7.09343 24.0061 8.58241 24.7149 9.62306 25.8804C10.6651 27.0458 11.16 28.6198 10.9845 30.1732L8.4645 46.4588C8.29175 47.9944 7.03584 49.2599 5.50846 49.2599C3.97972 49.2599 2.72518 48.0026 2.55106 46.4684L0.0337619 30.1705C-0.141736 28.6184 0.353222 27.0458 1.39387 25.8804C2.43451 24.7149 3.92213 24.0061 5.48516 24.0061Z"  fill-opacity="0.7"/>
<path d="M5.51025 22.6213C8.49522 22.6213 10.915 20.2015 10.915 17.2165C10.915 14.2316 8.49522 11.8118 5.51025 11.8118C2.52527 11.8118 0.105469 14.2316 0.105469 17.2165C0.105469 20.2015 2.52527 22.6213 5.51025 22.6213Z"  fill-opacity="0.7"/>
</g>
<defs>
<clipPath id="clip0">
<rect width="62" height="62" fill="white"/>
</clipPath>
</defs>
</svg>
