<svg width="61" height="54" viewBox="0 0 61 54" fill="none" xmlns="http://www.w3.org/2000/svg">
<path d="M53.5495 2.70058C47.3509 -1.33964 38.0018 -1.51807 30.4969 6.84277C23.0688 -1.50533 13.7068 -1.33964 7.50822 2.70058C1.30961 6.74081 -2.8783 15.5222 2.41101 25.2978C3.51777 27.2864 4.91148 29.1028 6.54769 30.689L29.6004 53.6304C29.72 53.7485 29.862 53.842 30.018 53.9054C30.174 53.9688 30.3411 54.0009 30.5097 54C30.8488 53.9953 31.1735 53.8633 31.419 53.6304L54.4717 30.689C56.1159 29.1068 57.5144 27.2898 58.6211 25.2978C63.872 15.5222 59.6457 6.72807 53.5495 2.70058ZM50.0532 28.7263C50.1845 29.2245 50.3471 29.714 50.5399 30.192C50.6167 30.3831 50.6808 30.5616 50.7448 30.7528L42.6892 38.7695H37.9634C37.113 38.4248 36.2048 38.2432 35.2867 38.2342C35.1974 38.2224 35.107 38.2224 35.0177 38.2342C35.4509 37.9386 35.8465 37.5919 36.196 37.2018C37.3358 35.9228 37.9646 34.2721 37.9634 32.5626C37.9658 31.3024 37.6193 30.066 36.9619 28.989C36.3044 27.912 35.3614 27.0362 34.2365 26.4576C34.4294 25.3806 34.528 24.2889 34.5311 23.1949V18.9889C34.5441 18.1478 34.7397 17.3193 35.1044 16.5604C35.4692 15.8015 35.9944 15.1299 36.6442 14.5918C38.1212 13.3376 40.0049 12.6585 41.9464 12.6801C46.0446 12.6801 49.3616 15.5095 49.3616 18.9889V23.2586C49.3622 25.1027 49.5945 26.9395 50.0532 28.7263ZM28.1148 35.5704C27.6472 35.0257 27.3139 34.3798 27.1414 33.6841C29.7572 32.7221 32.6325 32.7221 35.2483 33.6841C35.0965 34.3747 34.7852 35.0205 34.339 35.5704C33.9452 36.0027 33.4649 36.3481 32.9289 36.5845C32.3929 36.8209 31.8131 36.943 31.2269 36.943C30.6406 36.943 30.0608 36.8209 29.5248 36.5845C28.9889 36.3481 28.5085 36.0027 28.1148 35.5704ZM31.2013 39.5087C32.2591 39.5049 33.3003 39.2469 34.2365 38.7567C33.912 39.2674 33.463 39.6881 32.9311 39.9796C32.3993 40.2712 31.802 40.424 31.1948 40.424C30.5877 40.424 29.9904 40.2712 29.4586 39.9796C28.9267 39.6881 28.4777 39.2674 28.1532 38.7567C29.0934 39.2484 30.1391 39.5064 31.2013 39.5087ZM35.0434 30.9822C32.5104 30.2682 29.828 30.2682 27.2951 30.9822C27.5905 30.197 28.1197 29.5202 28.812 29.0425C29.5043 28.5647 30.3267 28.3087 31.1692 28.3087C32.0117 28.3087 32.8341 28.5647 33.5264 29.0425C34.2188 29.5202 34.748 30.197 35.0434 30.9822ZM24.4135 32.6263C24.4033 33.7389 24.6662 34.8372 25.1796 35.8256C25.693 36.8141 26.4412 37.6627 27.3591 38.2979C27.2699 38.2861 27.1794 38.2861 27.0902 38.2979C26.0172 38.2998 24.9569 38.528 23.9789 38.9674C23.001 39.4067 22.1278 40.0473 21.4167 40.8469H20.2512L10.9405 31.5812C12.3313 30.4706 14.0625 29.8679 15.8456 29.8733C17.082 30.8501 18.578 31.4464 20.15 31.589C21.7221 31.7316 23.3018 31.4144 24.6953 30.6763C24.5153 31.3105 24.429 31.9674 24.4391 32.6263H24.4135ZM30.4969 50.9029L22.7358 43.2558C22.7358 43.1793 22.8511 43.1028 22.9151 43.0391C23.0266 42.935 23.1216 42.8147 23.1968 42.6823C24.0315 41.6706 25.2317 41.0253 26.5395 40.8852C27.1105 41.5607 27.8231 42.1039 28.6273 42.4764C29.4314 42.849 30.3078 43.0421 31.1948 43.0421C32.0819 43.0421 32.9583 42.849 33.7624 42.4764C34.5666 42.1039 35.2792 41.5607 35.8502 40.8852C37.0489 41.0691 38.1452 41.6642 38.9495 42.5675L30.4969 50.9029ZM56.3287 24.138C55.3634 25.8482 54.1605 27.4143 52.7555 28.79C52.6714 28.573 52.5987 28.3518 52.5378 28.1272C52.1263 26.5496 51.9155 24.9268 51.9102 23.2968V18.9889C51.9102 14.1075 47.4406 10.131 41.9336 10.131C39.3739 10.1134 36.8944 11.0189 34.9537 12.6801C34.0182 13.4612 33.2653 14.4361 32.7477 15.5368C32.2301 16.6375 31.9602 17.8374 31.9569 19.0527V23.3223C31.9549 24.1765 31.8821 25.0291 31.7391 25.8713C31.5599 25.8713 31.3805 25.8713 31.2013 25.8713C29.6713 25.8812 28.1918 26.417 27.0133 27.388C26.7316 27.388 26.4498 27.388 26.1681 27.388H25.6942C25.4171 27.388 25.1475 27.4775 24.9258 27.6429C23.8623 28.6156 22.4705 29.1554 21.0261 29.1554C19.5816 29.1554 18.1898 28.6156 17.1263 27.6429C16.9011 27.4748 16.6266 27.3852 16.3451 27.388H15.884C13.4216 27.3816 11.0376 28.2493 9.16033 29.8351L8.36629 29.0449C6.90121 27.6432 5.65381 26.0324 4.66505 24.2655C0.144167 15.8919 3.69172 8.41043 8.91699 5.00746C11.1681 3.53223 13.8034 2.74371 16.4988 2.73882C20.8019 2.73882 25.4637 4.75256 29.4851 9.78691C29.605 9.93808 29.7577 10.0602 29.9318 10.1442C30.106 10.2282 30.297 10.2719 30.4905 10.2719C30.684 10.2719 30.875 10.2282 31.0491 10.1442C31.2232 10.0602 31.3759 9.93808 31.4958 9.78691C38.0786 1.48979 46.5825 1.40058 52.0767 4.99472C57.302 8.24474 60.8496 15.7262 56.3287 24.0998V24.138Z"  fill-opacity="0.7"/>
<path d="M42.1246 15H41.8754C40.5832 15.0034 39.3448 15.6076 38.4311 16.6804C37.5174 17.7533 37.0029 19.2074 37 20.7246V23.3961C37.0599 24.9059 37.6128 26.3306 38.5439 27.3741C39.4751 28.4177 40.7128 29 42 29C43.2872 29 44.5249 28.4177 45.4561 27.3741C46.3872 26.3306 46.9401 24.9059 47 23.3961V20.7246C46.9971 19.2074 46.4826 17.7533 45.5689 16.6804C44.6552 15.6076 43.4168 15.0034 42.1246 15ZM41.8754 17.5443H42.1246C42.6354 17.548 43.135 17.7207 43.5661 18.0424C43.9973 18.3642 44.3425 18.822 44.5623 19.3634C42.968 18.5498 41.1684 18.486 39.5352 19.1853C39.7643 18.6907 40.1023 18.2774 40.514 17.9887C40.9257 17.7 41.3959 17.5465 41.8754 17.5443ZM41.9946 26.7164C41.2446 26.7164 40.5254 26.3666 39.9951 25.7439C39.4648 25.1212 39.1668 24.2767 39.1668 23.3961V22.124C40.0083 21.4752 40.9996 21.1467 42.0057 21.1831C43.0119 21.2195 43.984 21.6191 44.7898 22.3275V23.3452C44.7955 23.7823 44.7277 24.2164 44.5902 24.6227C44.4527 25.0289 44.2482 25.3993 43.9885 25.7125C43.7288 26.0257 43.419 26.2756 43.0768 26.4479C42.7346 26.6202 42.3669 26.7114 41.9946 26.7164Z"  fill-opacity="0.7"/>
<path d="M29.9862 18.1225C30.0025 15.9829 29.0707 13.9252 27.3956 12.402C25.7206 10.8787 23.4397 10.0148 21.0546 10.0002C19.8736 9.99295 18.7025 10.1945 17.6084 10.5932C16.5142 10.9919 15.5183 11.5801 14.6775 12.3241C12.9794 13.8266 12.0163 15.8728 12.0001 18.0123C12.0001 18.2449 12.0001 18.4897 12.0001 18.7223C11.9954 19.9897 12.3125 21.2413 12.9272 22.3824C13.542 23.5235 14.4383 24.5241 15.5482 25.3083C17.1054 26.4043 19.0275 27 21.0068 27C22.9861 27 24.9082 26.4043 26.4654 25.3083C27.5733 24.526 28.4675 23.5272 29.08 22.388C29.6925 21.2489 30.0071 19.9993 29.9999 18.7346C29.9999 18.5265 29.9999 18.3184 29.9999 18.1225H29.9862ZM21.0068 12.932C22.3365 12.947 23.6266 13.3403 24.691 14.0553C25.7554 14.7704 26.5392 15.7702 26.9294 16.9106C24.7187 16.8004 21.4708 16.3964 20.2835 15.1478C20.133 14.9894 19.94 14.8681 19.7227 14.7953C19.5054 14.7225 19.271 14.7005 19.0417 14.7316C18.8087 14.7613 18.5883 14.8445 18.4018 14.9732C18.2153 15.1019 18.069 15.2717 17.9772 15.4661C17.6831 15.9232 17.2591 16.3022 16.7485 16.5646C16.2379 16.8269 15.6589 16.9632 15.0705 16.9595C15.4574 15.811 16.2406 14.8022 17.3074 14.0785C18.3742 13.3547 19.6695 12.9533 21.0068 12.932ZM24.8005 23.4109C23.7121 24.1545 22.3818 24.5572 21.0136 24.5572C19.6455 24.5572 18.3151 24.1545 17.2267 23.4109C16.5355 22.9307 15.9585 22.3314 15.5296 21.6481C15.1007 20.9648 14.8286 20.2114 14.7294 19.4323C15.6146 19.4411 16.4927 19.2896 17.3111 18.9866C18.1295 18.6837 18.8713 18.2358 19.492 17.6695C21.8938 18.7757 24.5571 19.3468 27.2569 19.3344C27.1769 20.1278 26.9179 20.8982 26.4956 21.599C26.0733 22.2998 25.4966 22.9162 24.8005 23.4109Z"  fill-opacity="0.7"/>
</svg>
