<svg width="28" height="32" viewBox="0 0 28 32" fill="none" xmlns="http://www.w3.org/2000/svg">
<path d="M14 4C11.2311 4 8.52431 4.82109 6.22202 6.35942C3.91973 7.89776 2.12532 10.0843 1.06569 12.6424C0.00606604 15.2006 -0.271181 18.0155 0.269012 20.7313C0.809205 23.447 2.14258 25.9416 4.10051 27.8995C6.05844 29.8574 8.55301 31.1908 11.2687 31.731C13.9845 32.2712 16.7994 31.9939 19.3576 30.9343C21.9157 29.8747 24.1022 28.0803 25.6406 25.778C27.1789 23.4757 28 20.7689 28 18C27.9969 14.2879 26.5209 10.7288 23.896 8.10397C21.2712 5.47914 17.7121 4.00314 14 4ZM20.5618 27.5939C18.6309 28.9211 16.343 29.6316 14 29.6316C11.657 29.6316 9.36908 28.9211 7.43824 27.5939C7.43824 27.3689 7.37902 27.1438 7.37902 26.9425C7.37902 25.1865 8.07659 23.5024 9.31826 22.2607C10.5599 21.0191 12.244 20.3215 14 20.3215C15.756 20.3215 17.4401 21.0191 18.6817 22.2607C19.9234 23.5024 20.621 25.1865 20.621 26.9425C20.621 27.1438 20.5855 27.3689 20.5618 27.5939ZM22.8714 25.5093C22.8771 25.4423 22.8771 25.3749 22.8714 25.3079C22.8714 25.1895 22.8714 25.0592 22.8003 24.9408C22.7293 24.8223 22.7293 24.6328 22.6819 24.4788L22.5753 24.1235C22.5753 23.9695 22.4687 23.8156 22.4095 23.6734C22.3503 23.5313 22.291 23.4484 22.291 23.3418C22.291 23.2352 22.1489 23.0338 22.066 22.8917L21.9239 22.5956C21.8291 22.4298 21.7344 22.2758 21.6278 22.1218L21.4856 21.8968C21.3316 21.6599 21.1658 21.4467 21 21.2335L20.8934 21.1269C20.7526 20.9529 20.6024 20.7869 20.4433 20.6294L20.1591 20.3689L19.78 20.0254L19.5076 19.8122L19.1286 19.5161L18.8325 19.3266L18.4179 19.1844L18.11 19.0186L17.6717 18.8054L17.3401 18.6633L16.89 18.4975L16.5465 18.3909L16.0609 18.2606L15.7293 18.1895C15.5517 18.1153 15.3697 18.052 15.1844 18H14.9002C14.6159 18 14.3198 18 14.0237 18C13.7276 18 13.4315 18 13.1472 18H12.8156C12.6243 18.02 12.4345 18.0517 12.247 18.0948L11.9154 18.1658L11.4298 18.2961L11.0863 18.4027L10.6362 18.5685L10.3046 18.7107L9.86633 18.9239L9.55838 19.0897L9.14383 19.3384L8.84772 19.5279L8.4687 19.824L8.19628 20.0372L7.84095 20.3689L7.61591 20.5821C7.45685 20.7395 7.3066 20.9056 7.16582 21.0795L7.05923 21.1861C6.89341 21.3993 6.72758 21.6125 6.57361 21.8494L6.43148 22.0744C6.32488 22.2284 6.23012 22.3824 6.13537 22.5482L5.99324 22.8443C5.91033 22.9983 5.83926 23.1404 5.76819 23.2944C5.69713 23.4484 5.68528 23.5076 5.63791 23.6261C5.59053 23.7445 5.51946 23.9222 5.47209 24.0761L5.36549 24.4315C5.36549 24.5854 5.28258 24.7394 5.24704 24.8934C5.21151 25.0474 5.24704 25.1421 5.17598 25.2606C5.17026 25.3276 5.17026 25.3949 5.17598 25.4619C3.37778 23.3905 2.38182 20.743 2.36887 18C2.36887 14.9152 3.59429 11.9568 5.77555 9.77555C7.95681 7.59429 10.9152 6.36887 14 6.36887C17.0848 6.36887 20.0432 7.59429 22.2245 9.77555C24.4057 11.9568 25.6311 14.9152 25.6311 18C25.6427 20.7533 24.6631 23.4188 22.8714 25.5093Z" fill="white"/>
<path d="M14 9C13.2089 9 12.4355 9.2346 11.7777 9.67412C11.1199 10.1136 10.6072 10.7384 10.3045 11.4693C10.0017 12.2002 9.92252 13.0044 10.0769 13.7804C10.2312 14.5563 10.6122 15.269 11.1716 15.8284C11.731 16.3878 12.4437 16.7688 13.2196 16.9231C13.9956 17.0775 14.7998 16.9983 15.5307 16.6955C16.2616 16.3928 16.8864 15.8801 17.3259 15.2223C17.7654 14.5645 18 13.7911 18 13C18 11.9391 17.5786 10.9217 16.8284 10.1716C16.0783 9.42143 15.0609 9 14 9ZM14 14.5976C13.684 14.5976 13.3751 14.5039 13.1124 14.3284C12.8497 14.1528 12.6449 13.9033 12.524 13.6114C12.4031 13.3195 12.3715 12.9982 12.4331 12.6883C12.4947 12.3784 12.6469 12.0938 12.8703 11.8703C13.0938 11.6469 13.3784 11.4947 13.6883 11.4331C13.9982 11.3715 14.3195 11.4031 14.6114 11.524C14.9033 11.6449 15.1528 11.8497 15.3284 12.1124C15.5039 12.3751 15.5976 12.684 15.5976 13C15.5976 13.4237 15.4293 13.8301 15.1297 14.1297C14.8301 14.4293 14.4237 14.5976 14 14.5976Z" fill="white"/>
</svg>
