<svg width="22" height="24" viewBox="0 0 22 24" fill="none" xmlns="http://www.w3.org/2000/svg">
<path d="M10 24.0001C7.93311 24.0001 6.25 22.3181 6.25 20.2501C6.25 19.8361 6.586 19.5001 7 19.5001C7.414 19.5001 7.75 19.8361 7.75 20.2501C7.75 21.4912 8.76002 22.5001 10 22.5001C11.24 22.5001 12.25 21.4912 12.25 20.2501C12.25 19.8361 12.586 19.5001 13 19.5001C13.414 19.5001 13.75 19.8361 13.75 20.2501C13.75 22.3181 12.0671 24.0001 10 24.0001Z" fill="#504D4D" fill-opacity="0.9"/>
<path d="M18.25 21.0001H1.74994C0.784975 21.0001 0 20.2151 0 19.2501C0 18.738 0.223023 18.2531 0.61194 17.92C0.637026 17.8981 0.663942 17.8781 0.691957 17.86C2.15992 16.579 3.00001 14.736 3.00001 12.79V9.99997C3.00001 6.1401 6.14101 3.00002 9.99997 3.00002C10.16 3.00002 10.333 3.00294 10.4931 3.03004C10.9019 3.09798 11.1781 3.48506 11.11 3.89302C11.042 4.30098 10.648 4.57711 10.247 4.50899C10.167 4.49599 10.0791 4.50002 9.99997 4.50002C6.9681 4.50002 4.50001 6.96701 4.50001 9.99997V12.79C4.50001 15.206 3.44093 17.4921 1.59705 19.061C1.58204 19.0731 1.56904 19.084 1.55292 19.095C1.52601 19.1291 1.5 19.1811 1.5 19.2501C1.5 19.386 1.61408 19.5001 1.74994 19.5001H18.25C18.386 19.5001 18.5001 19.386 18.5001 19.2501C18.5001 19.18 18.4741 19.1291 18.4461 19.095C18.4311 19.084 18.4181 19.0731 18.4031 19.061C16.5581 17.491 15.5001 15.206 15.5001 12.79V11.7001C15.5001 11.2861 15.8361 10.9501 16.2501 10.9501C16.6641 10.9501 17.0001 11.2861 17.0001 11.7001V12.79C17.0001 14.7371 17.8411 16.581 19.3111 17.8631C19.338 17.881 19.364 17.9001 19.388 17.9211C19.7771 18.2531 20.0001 18.738 20.0001 19.2501C20.0001 20.2151 19.2151 21.0001 18.25 21.0001Z" fill="#504D4D" fill-opacity="0.9"/>
<path d="M17.0001 9.99997C14.243 9.99997 12 7.7571 12 5.00007C12 2.24305 14.243 0 17.0001 0C19.7571 0 22 2.24305 22 5.00007C22 7.7571 19.7571 9.99997 17.0001 9.99997ZM17.0001 1.5C15.07 1.5 13.5 3.06995 13.5 5.00007C13.5 6.93001 15.07 8.49996 17.0001 8.49996C18.93 8.49996 20.5 6.93001 20.5 5.00007C20.5 3.06995 18.93 1.5 17.0001 1.5Z" fill="#504D4D" fill-opacity="0.9"/>
</svg>
