<svg width="29" height="31" viewBox="0 0 29 31" fill="none" xmlns="http://www.w3.org/2000/svg">
<path d="M14.769 0.163757C12.4829 0.167479 10.2916 1.06725 8.67515 2.66592C7.05868 4.26459 6.14889 6.43179 6.14513 8.69265V10.0015C4.68316 10.1511 3.32893 10.8306 2.34353 11.9091C1.35813 12.9876 0.811345 14.3887 0.808594 15.8423V24.9623C0.808594 26.53 1.4383 28.0335 2.55919 29.1421C3.68008 30.2506 5.20034 30.8734 6.78552 30.8734H22.7524C24.3376 30.8734 25.8579 30.2506 26.9788 29.1421C28.0996 28.0335 28.7294 26.53 28.7294 24.9623V15.8423C28.7266 14.3887 28.1798 12.9876 27.1944 11.9091C26.209 10.8306 24.8548 10.1511 23.3928 10.0015V8.69265C23.3891 6.43179 22.4793 4.26459 20.8628 2.66592C19.2463 1.06725 17.055 0.167479 14.769 0.163757ZM14.769 2.97857C16.3013 2.97857 17.7709 3.58059 18.8544 4.65218C19.9379 5.72378 20.5467 7.17718 20.5467 8.69265V9.88894H8.99128V8.65042C9.00255 7.14229 9.61624 5.69971 10.6986 4.63723C11.7809 3.57475 13.244 2.97853 14.769 2.97857ZM25.8832 15.8423V24.9623C25.8832 25.7835 25.5534 26.571 24.9662 27.1517C24.3791 27.7324 23.5828 28.0586 22.7524 28.0586H6.78552C5.95518 28.0586 5.15886 27.7324 4.57173 27.1517C3.98459 26.571 3.65475 25.7835 3.65475 24.9623V15.8423C3.65475 15.0211 3.98459 14.2335 4.57173 13.6529C5.15886 13.0722 5.95518 12.746 6.78552 12.746H22.7524C23.5828 12.746 24.3791 13.0722 24.9662 13.6529C25.5534 14.2335 25.8832 15.0211 25.8832 15.8423Z" fill="white"/>
<path d="M14.7692 16.0111C14.1854 16.0148 13.6265 16.2458 13.2137 16.6541C12.8008 17.0624 12.5672 17.6152 12.5635 18.1926C12.5655 18.5068 12.6365 18.8168 12.7716 19.1011C12.9068 19.3854 13.1028 19.6373 13.3462 19.8393V23.2733C13.3462 23.6466 13.4961 24.0046 13.763 24.2685C14.0299 24.5325 14.3918 24.6807 14.7692 24.6807C15.1467 24.6807 15.5086 24.5325 15.7755 24.2685C16.0424 24.0046 16.1923 23.6466 16.1923 23.2733V19.8393C16.4357 19.6373 16.6317 19.3854 16.7669 19.1011C16.902 18.8168 16.973 18.5068 16.975 18.1926C16.9713 17.6152 16.7377 17.0624 16.3248 16.6541C15.912 16.2458 15.3531 16.0148 14.7692 16.0111Z" fill="white"/>
</svg>
